<?xml version="1.0" encoding="UTF-8" standalone="no"?>
<!-- Created with Inkscape (http://www.inkscape.org/) -->
<svg
   xmlns:dc="http://purl.org/dc/elements/1.1/"
   xmlns:cc="http://web.resource.org/cc/"
   xmlns:rdf="http://www.w3.org/1999/02/22-rdf-syntax-ns#"
   xmlns:svg="http://www.w3.org/2000/svg"
   xmlns="http://www.w3.org/2000/svg"
   xmlns:sodipodi="http://sodipodi.sourceforge.net/DTD/sodipodi-0.dtd"
   xmlns:inkscape="http://www.inkscape.org/namespaces/inkscape"
   id="svg3470"
   sodipodi:version="0.32"
   inkscape:version="0.45.1"
   width="500"
   height="233"
   version="1.0"
	 inkscape:output_extension="org.inkscape.output.svg.inkscape">
  <sodipodi:namedview
	 inkscape:window-height="934"
	 inkscape:window-width="1280"
	 inkscape:pageshadow="2"
	 inkscape:pageopacity="0.0"
	 guidetolerance="10.0"
	 gridtolerance="10.0"
	 objecttolerance="10.0"
	 borderopacity="1.0"
	 bordercolor="#ad7a35"
	 pagecolor="#ad7a35"
	 id="base"
	 inkscape:zoom="1.6180258"
	 inkscape:cx="199"
	 inkscape:cy="116.5"
	 inkscape:window-x="-4"
	 inkscape:window-y="-4"
	 inkscape:current-layer="svg3470" />
  <metadata
	 id="metadata3475">
	<rdf:RDF>
	  <cc:Work
		 rdf:about="">
		<dc:format>image/svg+xml</dc:format>
		<dc:type
		   rdf:resource="http://purl.org/dc/dcmitype/StillImage" />
	  </cc:Work>
	</rdf:RDF>
  </metadata>
  <defs
	 id="defs3473" />
  <path
	 style="fill:#090909"
	 d="M 101.81923,191.51393 C 98.392591,188.10625 65.324833,156.1447 60.621884,151.69474 C 59.003286,150.16321 51.473574,143.60121 50.236074,142.6437 C 46.857336,140.02942 36.236074,128.97551 36.236074,128.07343 C 36.236074,127.63414 47.847194,114.79915 52.251412,110.36999 C 62.229616,100.33526 89.489166,71.997521 92.736076,68.284046 C 94.111076,66.711466 100.96252,59.556221 102.18635,58.414746 C 103.41018,57.273271 108.12268,52.612101 108.68635,51.985546 C 112.30612,47.961971 131.448,28.763926 131.84004,28.763926 C 132.09859,28.763926 144.72672,40.390506 149.25815,44.800586 C 153.78958,49.210666 167.14728,61.884966 167.68257,62.282376 C 168.21786,62.679781 179.84652,73.709451 183.7221,77.495706 C 197.7572,91.207336 243.90408,134.62136 249.86436,139.72096 C 250.65408,140.39664 257.89757,146.74039 259.85538,148.47096 C 261.81319,150.20153 267.80547,154.76393 268.12059,154.76393 C 268.80902,154.76393 291.51794,132.16952 299.73607,123.30787 C 303.03607,119.74946 314.09232,108.10392 314.98607,107.24506 C 315.87982,106.38619 318.23607,102.92507 318.23607,102.4711 C 318.23607,101.29367 265.42286,49.007591 262.68715,47.476606 C 261.41813,46.766426 263.14514,41.722336 265.17657,40.205746 C 266.2602,39.396746 269.87893,35.612326 270.16792,34.985856 C 270.4569,34.359391 272.33935,32.277786 272.7644,32.114676 C 273.18945,31.951571 275.35812,29.494791 275.75567,28.726016 C 276.66113,26.975056 283.95314,25.003751 285.58046,26.070006 C 286.20281,26.477791 300.56172,40.135616 305.38585,44.908386 C 310.20997,49.681161 330.05103,68.788926 332.75283,71.263926 C 335.45462,73.738926 345.22928,82.801426 346.23512,83.763926 C 347.24096,84.726426 353.65225,90.440336 355.07828,91.64519 C 356.50431,92.85003 360.67615,97.66917 360.83254,98.29227 C 361.17484,99.6561 343.3355,119.49208 325.23607,137.87283 C 317.94857,145.2736 294.44953,169.30843 292.8236,171.02432 C 283.29424,181.08093 266.21595,197.75998 265.45123,197.75681 C 264.97956,197.75485 261.03896,195.0361 260.01592,194.00681 C 254.91884,188.87859 235.52522,170.16339 233.74065,168.65068 C 232.64191,167.71932 225.39191,160.86132 223.74065,159.19137 C 222.08939,157.52142 212.29857,148.15384 210.23607,146.27057 C 208.17357,144.3873 194.37314,131.38991 191.201,128.34313 C 184.34325,121.75639 163.45358,102.34298 158.83448,98.26393 C 156.96603,96.61393 146.4924,86.931846 144.38809,84.909336 C 138.98913,79.720231 131.22315,75.197591 129.5708,76.280256 C 128.25497,77.142416 107.50535,97.85259 98.736071,107.05637 C 91.959983,114.16819 82.236076,126.18114 82.236076,127.44052 C 82.236076,128.5509 97.689301,145.17145 107.81357,154.95012 C 109.71725,156.78882 115.57581,162.58882 115.89433,162.95012 C 116.21285,163.31142 120.08117,166.80143 121.22994,167.76393 C 123.95701,170.0488 131.22853,177.58706 131.23144,178.1323 C 131.23343,178.50679 120.71989,189.79729 115.51152,195.01393 C 113.41817,197.1106 105.38122,195.0562 101.81923,191.51393 z "
	 id="path4868" />
</svg>
